solid ascii
  facet normal -9.978696e-001 7.481173e-004 -6.038130e-002
    outer loop
      vertex   -1.659891e+002 1.012795e+002 3.191950e-001
      vertex   -1.659973e+002 9.761282e+001 4.094323e-001
      vertex   -1.660000e+002 1.012795e+002 5.000001e-001
    endloop
  endfacet
  facet normal -1.234546e-002 -1.694066e-021 -3.723117e-004
    outer loop
      vertex   -1.660000e+002 1.012795e+002 5.000001e-001
      vertex   -1.659973e+002 9.761282e+001 4.094323e-001
      vertex   -1.659973e+002 9.394615e+001 4.094323e-001
    endloop
  endfacet
  facet normal -1.234920e-002 -0.000000e+000 -3.724246e-004
    outer loop
      vertex   -1.660000e+002 1.012795e+002 5.000001e-001
      vertex   -1.659973e+002 9.394615e+001 4.094323e-001
      vertex   -1.660000e+002 9.027949e+001 5.000001e-001
    endloop
  endfacet
  facet normal -9.978696e-001 -7.481173e-004 -6.038130e-002
    outer loop
      vertex   -1.660000e+002 9.027949e+001 5.000001e-001
      vertex   -1.659973e+002 9.394615e+001 4.094323e-001
      vertex   -1.659891e+002 9.027949e+001 3.191950e-001
    endloop
  endfacet
  facet normal -4.901051e-002 3.673777e-005 -5.951459e-003
    outer loop
      vertex   -1.659891e+002 9.027949e+001 3.191950e-001
      vertex   -1.659973e+002 9.394615e+001 4.094323e-001
      vertex   -1.659754e+002 9.394615e+001 2.296175e-001
    endloop
  endfacet
  facet normal -9.833165e-001 -7.485403e-004 -1.802172e-001
    outer loop
      vertex   -1.659891e+002 9.027949e+001 3.191950e-001
      vertex   -1.659754e+002 9.394615e+001 2.296175e-001
      vertex   -1.659564e+002 9.027949e+001 1.410265e-001
    endloop
  endfacet
  facet normal -4.793586e-002 3.672107e-005 -1.181558e-002
    outer loop
      vertex   -1.659564e+002 9.027949e+001 1.410265e-001
      vertex   -1.659754e+002 9.394615e+001 2.296175e-001
      vertex   -1.659321e+002 9.394615e+001 5.374545e-002
    endloop
  endfacet
  facet normal -9.544445e-001 -7.472109e-004 -2.973641e-001
    outer loop
      vertex   -1.659564e+002 9.027949e+001 1.410265e-001
      vertex   -1.659321e+002 9.394615e+001 5.374545e-002
      vertex   -1.659025e+002 9.027949e+001 -3.190730e-002
    endloop
  endfacet
  facet normal -4.616220e-002 3.690747e-005 -1.750918e-002
    outer loop
      vertex   -1.659025e+002 9.027949e+001 -3.190730e-002
      vertex   -1.659321e+002 9.394615e+001 5.374545e-002
      vertex   -1.658678e+002 9.394615e+001 -1.156192e-001
    endloop
  endfacet
  facet normal -9.116205e-001 -7.440526e-004 -4.102898e-001
    outer loop
      vertex   -1.659025e+002 9.027949e+001 -3.190730e-002
      vertex   -1.658678e+002 9.394615e+001 -1.156192e-001
      vertex   -1.658282e+002 9.027949e+001 -1.970847e-001
    endloop
  endfacet
  facet normal -4.371539e-002 3.688251e-005 -2.294078e-002
    outer loop
      vertex   -1.658282e+002 9.027949e+001 -1.970847e-001
      vertex   -1.658678e+002 9.394615e+001 -1.156192e-001
      vertex   -1.657837e+002 9.394615e+001 -2.760067e-001
    endloop
  endfacet
  facet normal -8.555299e-001 -7.461926e-004 -5.171637e-001
    outer loop
      vertex   -1.658282e+002 9.027949e+001 -1.970847e-001
      vertex   -1.657837e+002 9.394615e+001 -2.760067e-001
      vertex   -1.657345e+002 9.027949e+001 -3.520971e-001
    endloop
  endfacet
  facet normal -4.063110e-002 3.691662e-005 -2.804797e-002
    outer loop
      vertex   -1.657345e+002 9.027949e+001 -3.520971e-001
      vertex   -1.657837e+002 9.394615e+001 -2.760067e-001
      vertex   -1.656808e+002 9.394615e+001 -4.250783e-001
    endloop
  endfacet
  facet normal -7.869434e-001 -7.439039e-004 -6.165304e-001
    outer loop
      vertex   -1.657345e+002 9.027949e+001 -3.520971e-001
      vertex   -1.656808e+002 9.394615e+001 -4.250783e-001
      vertex   -1.656228e+002 9.027949e+001 -4.946840e-001
    endloop
  endfacet
  facet normal -3.695433e-002 3.696473e-005 -3.273926e-002
    outer loop
      vertex   -1.656228e+002 9.027949e+001 -4.946840e-001
      vertex   -1.656808e+002 9.394615e+001 -4.250783e-001
      vertex   -1.655607e+002 9.394615e+001 -5.606601e-001
    endloop
  endfacet
  facet normal -7.068905e-001 -7.437237e-004 -7.068914e-001
    outer loop
      vertex   -1.656228e+002 9.027949e+001 -4.946840e-001
      vertex   -1.655607e+002 9.394615e+001 -5.606601e-001
      vertex   -1.654947e+002 9.027949e+001 -6.227661e-001
    endloop
  endfacet
  facet normal -3.273868e-002 3.692479e-005 -3.695228e-002
    outer loop
      vertex   -1.654947e+002 9.027949e+001 -6.227661e-001
      vertex   -1.655607e+002 9.394615e+001 -5.606601e-001
      vertex   -1.654251e+002 9.394615e+001 -6.807752e-001
    endloop
  endfacet
  facet normal -6.165133e-001 -7.458517e-004 -7.869568e-001
    outer loop
      vertex   -1.654947e+002 9.027949e+001 -6.227661e-001
      vertex   -1.654251e+002 9.394615e+001 -6.807752e-001
      vertex   -1.653521e+002 9.027949e+001 -7.344758e-001
    endloop
  endfacet
  facet normal -2.804563e-002 3.686373e-005 -4.063295e-002
    outer loop
      vertex   -1.653521e+002 9.027949e+001 -7.344758e-001
      vertex   -1.654251e+002 9.394615e+001 -6.807752e-001
      vertex   -1.652760e+002 9.394615e+001 -7.836719e-001
    endloop
  endfacet
  facet normal -5.171757e-001 -7.455163e-004 -8.555226e-001
    outer loop
      vertex   -1.653521e+002 9.027949e+001 -7.344758e-001
      vertex   -1.652760e+002 9.394615e+001 -7.836719e-001
      vertex   -1.651971e+002 9.027949e+001 -8.281840e-001
    endloop
  endfacet
  facet normal -2.294362e-002 3.686241e-005 -4.371474e-002
    outer loop
      vertex   -1.651971e+002 9.027949e+001 -8.281840e-001
      vertex   -1.652760e+002 9.394615e+001 -7.836719e-001
      vertex   -1.651156e+002 9.394615e+001 -8.678498e-001
    endloop
  endfacet
  facet normal -4.102898e-001 -7.459578e-004 -9.116206e-001
    outer loop
      vertex   -1.651971e+002 9.027949e+001 -8.281840e-001
      vertex   -1.651156e+002 9.394615e+001 -8.678498e-001
      vertex   -1.650319e+002 9.027949e+001 -9.025244e-001
    endloop
  endfacet
  facet normal -1.750701e-002 3.683978e-005 -4.616020e-002
    outer loop
      vertex   -1.650319e+002 9.027949e+001 -9.025244e-001
      vertex   -1.651156e+002 9.394615e+001 -8.678498e-001
      vertex   -1.649463e+002 9.394615e+001 -9.320813e-001
    endloop
  endfacet
  facet normal -2.974214e-001 -7.463175e-004 -9.544266e-001
    outer loop
      vertex   -1.650319e+002 9.027949e+001 -9.025244e-001
      vertex   -1.649463e+002 9.394615e+001 -9.320813e-001
      vertex   -1.648590e+002 9.027949e+001 -9.564127e-001
    endloop
  endfacet
  facet normal -1.181513e-002 3.685200e-005 -4.793607e-002
    outer loop
      vertex   -1.648590e+002 9.027949e+001 -9.564127e-001
      vertex   -1.649463e+002 9.394615e+001 -9.320813e-001
      vertex   -1.647704e+002 9.394615e+001 -9.754298e-001
    endloop
  endfacet
  facet normal -1.801918e-001 -7.462715e-004 -9.833212e-001
    outer loop
      vertex   -1.648590e+002 9.027949e+001 -9.564127e-001
      vertex   -1.647704e+002 9.394615e+001 -9.754298e-001
      vertex   -1.646808e+002 9.027949e+001 -9.890633e-001
    endloop
  endfacet
  facet normal -5.950955e-003 3.684714e-005 -4.901323e-002
    outer loop
      vertex   -1.646808e+002 9.027949e+001 -9.890633e-001
      vertex   -1.647704e+002 9.394615e+001 -9.754298e-001
      vertex   -1.645906e+002 9.394615e+001 -9.972633e-001
    endloop
  endfacet
  facet normal -6.036154e-002 -7.460557e-004 -9.978708e-001
    outer loop
      vertex   -1.646808e+002 9.027949e+001 -9.890633e-001
      vertex   -1.645906e+002 9.394615e+001 -9.972633e-001
      vertex   -1.645000e+002 9.027949e+001 -1.000000e+000
    endloop
  endfacet
  facet normal -3.730430e-004 1.694066e-021 -1.234453e-002
    outer loop
      vertex   -1.645000e+002 9.027949e+001 -1.000000e+000
      vertex   -1.645906e+002 9.394615e+001 -9.972633e-001
      vertex   -1.645906e+002 9.761282e+001 -9.972633e-001
    endloop
  endfacet
  facet normal -3.731561e-004 0.000000e+000 -1.234827e-002
    outer loop
      vertex   -1.645000e+002 9.027949e+001 -1.000000e+000
      vertex   -1.645906e+002 9.761282e+001 -9.972633e-001
      vertex   -1.645000e+002 1.012795e+002 -1.000000e+000
    endloop
  endfacet
  facet normal -6.036155e-002 7.460557e-004 -9.978709e-001
    outer loop
      vertex   -1.645000e+002 1.012795e+002 -1.000000e+000
      vertex   -1.645906e+002 9.761282e+001 -9.972633e-001
      vertex   -1.646808e+002 1.012795e+002 -9.890633e-001
    endloop
  endfacet
  facet normal -5.950955e-003 -3.684714e-005 -4.901323e-002
    outer loop
      vertex   -1.646808e+002 1.012795e+002 -9.890633e-001
      vertex   -1.645906e+002 9.761282e+001 -9.972633e-001
      vertex   -1.647704e+002 9.761282e+001 -9.754298e-001
    endloop
  endfacet
  facet normal -1.801918e-001 7.462715e-004 -9.833212e-001
    outer loop
      vertex   -1.646808e+002 1.012795e+002 -9.890633e-001
      vertex   -1.647704e+002 9.761282e+001 -9.754298e-001
      vertex   -1.648590e+002 1.012795e+002 -9.564127e-001
    endloop
  endfacet
  facet normal -1.181513e-002 -3.685200e-005 -4.793607e-002
    outer loop
      vertex   -1.648590e+002 1.012795e+002 -9.564127e-001
      vertex   -1.647704e+002 9.761282e+001 -9.754298e-001
      vertex   -1.649463e+002 9.761282e+001 -9.320813e-001
    endloop
  endfacet
  facet normal -2.974214e-001 7.463174e-004 -9.544266e-001
    outer loop
      vertex   -1.648590e+002 1.012795e+002 -9.564127e-001
      vertex   -1.649463e+002 9.761282e+001 -9.320813e-001
      vertex   -1.650319e+002 1.012795e+002 -9.025244e-001
    endloop
  endfacet
  facet normal -1.750701e-002 -3.683978e-005 -4.616020e-002
    outer loop
      vertex   -1.650319e+002 1.012795e+002 -9.025244e-001
      vertex   -1.649463e+002 9.761282e+001 -9.320813e-001
      vertex   -1.651156e+002 9.761282e+001 -8.678498e-001
    endloop
  endfacet
  facet normal -4.102898e-001 7.459578e-004 -9.116206e-001
    outer loop
      vertex   -1.650319e+002 1.012795e+002 -9.025244e-001
      vertex   -1.651156e+002 9.761282e+001 -8.678498e-001
      vertex   -1.651971e+002 1.012795e+002 -8.281840e-001
    endloop
  endfacet
  facet normal -2.294362e-002 -3.686241e-005 -4.371474e-002
    outer loop
      vertex   -1.651971e+002 1.012795e+002 -8.281840e-001
      vertex   -1.651156e+002 9.761282e+001 -8.678498e-001
      vertex   -1.652760e+002 9.761282e+001 -7.836719e-001
    endloop
  endfacet
  facet normal -5.171757e-001 7.455163e-004 -8.555226e-001
    outer loop
      vertex   -1.651971e+002 1.012795e+002 -8.281840e-001
      vertex   -1.652760e+002 9.761282e+001 -7.836719e-001
      vertex   -1.653521e+002 1.012795e+002 -7.344758e-001
    endloop
  endfacet
  facet normal -2.804563e-002 -3.686373e-005 -4.063295e-002
    outer loop
      vertex   -1.653521e+002 1.012795e+002 -7.344758e-001
      vertex   -1.652760e+002 9.761282e+001 -7.836719e-001
      vertex   -1.654251e+002 9.761282e+001 -6.807752e-001
    endloop
  endfacet
  facet normal -6.165133e-001 7.458517e-004 -7.869568e-001
    outer loop
      vertex   -1.653521e+002 1.012795e+002 -7.344758e-001
      vertex   -1.654251e+002 9.761282e+001 -6.807752e-001
      vertex   -1.654947e+002 1.012795e+002 -6.227661e-001
    endloop
  endfacet
  facet normal -3.273868e-002 -3.692479e-005 -3.695228e-002
    outer loop
      vertex   -1.654947e+002 1.012795e+002 -6.227661e-001
      vertex   -1.654251e+002 9.761282e+001 -6.807752e-001
      vertex   -1.655607e+002 9.761282e+001 -5.606601e-001
    endloop
  endfacet
  facet normal -7.068906e-001 7.437238e-004 -7.068914e-001
    outer loop
      vertex   -1.654947e+002 1.012795e+002 -6.227661e-001
      vertex   -1.655607e+002 9.761282e+001 -5.606601e-001
      vertex   -1.656228e+002 1.012795e+002 -4.946840e-001
    endloop
  endfacet
  facet normal -3.695433e-002 -3.696473e-005 -3.273926e-002
    outer loop
      vertex   -1.656228e+002 1.012795e+002 -4.946840e-001
      vertex   -1.655607e+002 9.761282e+001 -5.606601e-001
      vertex   -1.656808e+002 9.761282e+001 -4.250783e-001
    endloop
  endfacet
  facet normal -7.869435e-001 7.439039e-004 -6.165304e-001
    outer loop
      vertex   -1.656228e+002 1.012795e+002 -4.946840e-001
      vertex   -1.656808e+002 9.761282e+001 -4.250783e-001
      vertex   -1.657345e+002 1.012795e+002 -3.520971e-001
    endloop
  endfacet
  facet normal -4.063110e-002 -3.691662e-005 -2.804797e-002
    outer loop
      vertex   -1.657345e+002 1.012795e+002 -3.520971e-001
      vertex   -1.656808e+002 9.761282e+001 -4.250783e-001
      vertex   -1.657837e+002 9.761282e+001 -2.760067e-001
    endloop
  endfacet
  facet normal -8.555299e-001 7.461926e-004 -5.171637e-001
    outer loop
      vertex   -1.657345e+002 1.012795e+002 -3.520971e-001
      vertex   -1.657837e+002 9.761282e+001 -2.760067e-001
      vertex   -1.658282e+002 1.012795e+002 -1.970847e-001
    endloop
  endfacet
  facet normal -4.371539e-002 -3.688251e-005 -2.294078e-002
    outer loop
      vertex   -1.658282e+002 1.012795e+002 -1.970847e-001
      vertex   -1.657837e+002 9.761282e+001 -2.760067e-001
      vertex   -1.658678e+002 9.761282e+001 -1.156192e-001
    endloop
  endfacet
  facet normal -9.116206e-001 7.440518e-004 -4.102899e-001
    outer loop
      vertex   -1.658282e+002 1.012795e+002 -1.970847e-001
      vertex   -1.658678e+002 9.761282e+001 -1.156192e-001
      vertex   -1.659025e+002 1.012795e+002 -3.190730e-002
    endloop
  endfacet
  facet normal -4.616220e-002 -3.690747e-005 -1.750918e-002
    outer loop
      vertex   -1.659025e+002 1.012795e+002 -3.190730e-002
      vertex   -1.658678e+002 9.761282e+001 -1.156192e-001
      vertex   -1.659321e+002 9.761282e+001 5.374545e-002
    endloop
  endfacet
  facet normal -9.544445e-001 7.472109e-004 -2.973641e-001
    outer loop
      vertex   -1.659025e+002 1.012795e+002 -3.190730e-002
      vertex   -1.659321e+002 9.761282e+001 5.374545e-002
      vertex   -1.659564e+002 1.012795e+002 1.410265e-001
    endloop
  endfacet
  facet normal -4.793586e-002 -3.672107e-005 -1.181558e-002
    outer loop
      vertex   -1.659564e+002 1.012795e+002 1.410265e-001
      vertex   -1.659321e+002 9.761282e+001 5.374545e-002
      vertex   -1.659754e+002 9.761282e+001 2.296175e-001
    endloop
  endfacet
  facet normal -9.833165e-001 7.485403e-004 -1.802172e-001
    outer loop
      vertex   -1.659564e+002 1.012795e+002 1.410265e-001
      vertex   -1.659754e+002 9.761282e+001 2.296175e-001
      vertex   -1.659891e+002 1.012795e+002 3.191950e-001
    endloop
  endfacet
  facet normal -4.901051e-002 -3.673777e-005 -5.951459e-003
    outer loop
      vertex   -1.659891e+002 1.012795e+002 3.191950e-001
      vertex   -1.659754e+002 9.761282e+001 2.296175e-001
      vertex   -1.659973e+002 9.761282e+001 4.094323e-001
    endloop
  endfacet
  facet normal -9.914985e-001 -8.673617e-019 -1.204000e-001
    outer loop
      vertex   -1.659754e+002 9.394615e+001 2.296175e-001
      vertex   -1.659973e+002 9.394615e+001 4.094323e-001
      vertex   -1.659973e+002 9.761282e+001 4.094323e-001
    endloop
  endfacet
  facet normal -9.697571e-001 1.734723e-018 -2.390328e-001
    outer loop
      vertex   -1.659321e+002 9.394615e+001 5.374545e-002
      vertex   -1.659754e+002 9.394615e+001 2.296175e-001
      vertex   -1.659754e+002 9.761282e+001 2.296175e-001
    endloop
  endfacet
  facet normal -9.927077e-001 -0.000000e+000 -1.205468e-001
    outer loop
      vertex   -1.659754e+002 9.761282e+001 2.296175e-001
      vertex   -1.659754e+002 9.394615e+001 2.296175e-001
      vertex   -1.659973e+002 9.761282e+001 4.094323e-001
    endloop
  endfacet
  facet normal -9.338628e-001 0.000000e+000 -3.542114e-001
    outer loop
      vertex   -1.658678e+002 9.394615e+001 -1.156192e-001
      vertex   -1.659321e+002 9.394615e+001 5.374545e-002
      vertex   -1.659321e+002 9.761282e+001 5.374545e-002
    endloop
  endfacet
  facet normal -9.709397e-001 -0.000000e+000 -2.393243e-001
    outer loop
      vertex   -1.659321e+002 9.761282e+001 5.374545e-002
      vertex   -1.659321e+002 9.394615e+001 5.374545e-002
      vertex   -1.659754e+002 9.761282e+001 2.296175e-001
    endloop
  endfacet
  facet normal -8.844012e-001 0.000000e+000 -4.641123e-001
    outer loop
      vertex   -1.657837e+002 9.394615e+001 -2.760067e-001
      vertex   -1.658678e+002 9.394615e+001 -1.156192e-001
      vertex   -1.658678e+002 9.761282e+001 -1.156192e-001
    endloop
  endfacet
  facet normal -9.350017e-001 -0.000000e+000 -3.546433e-001
    outer loop
      vertex   -1.658678e+002 9.761282e+001 -1.156192e-001
      vertex   -1.658678e+002 9.394615e+001 -1.156192e-001
      vertex   -1.659321e+002 9.761282e+001 5.374545e-002
    endloop
  endfacet
  facet normal -8.219593e-001 0.000000e+000 -5.674049e-001
    outer loop
      vertex   -1.656808e+002 9.394615e+001 -4.250783e-001
      vertex   -1.657837e+002 9.394615e+001 -2.760067e-001
      vertex   -1.657837e+002 9.761282e+001 -2.760067e-001
    endloop
  endfacet
  facet normal -8.854796e-001 -0.000000e+000 -4.646782e-001
    outer loop
      vertex   -1.657837e+002 9.761282e+001 -2.760067e-001
      vertex   -1.657837e+002 9.394615e+001 -2.760067e-001
      vertex   -1.658678e+002 9.761282e+001 -1.156192e-001
    endloop
  endfacet
  facet normal -7.475932e-001 0.000000e+000 -6.623216e-001
    outer loop
      vertex   -1.655607e+002 9.394615e+001 -5.606601e-001
      vertex   -1.656808e+002 9.394615e+001 -4.250783e-001
      vertex   -1.656808e+002 9.761282e+001 -4.250783e-001
    endloop
  endfacet
  facet normal -8.229617e-001 -0.000000e+000 -5.680969e-001
    outer loop
      vertex   -1.656808e+002 9.761282e+001 -4.250783e-001
      vertex   -1.656808e+002 9.394615e+001 -4.250783e-001
      vertex   -1.657837e+002 9.761282e+001 -2.760067e-001
    endloop
  endfacet
  facet normal -6.623356e-001 0.000000e+000 -7.475809e-001
    outer loop
      vertex   -1.654251e+002 9.394615e+001 -6.807752e-001
      vertex   -1.655607e+002 9.394615e+001 -5.606601e-001
      vertex   -1.655607e+002 9.761282e+001 -5.606601e-001
    endloop
  endfacet
  facet normal -7.485049e-001 -0.000000e+000 -6.631293e-001
    outer loop
      vertex   -1.655607e+002 9.761282e+001 -5.606601e-001
      vertex   -1.655607e+002 9.394615e+001 -5.606601e-001
      vertex   -1.656808e+002 9.761282e+001 -4.250783e-001
    endloop
  endfacet
  facet normal -5.673553e-001 0.000000e+000 -8.219935e-001
    outer loop
      vertex   -1.652760e+002 9.394615e+001 -7.836719e-001
      vertex   -1.654251e+002 9.394615e+001 -6.807752e-001
      vertex   -1.654251e+002 9.761282e+001 -6.807752e-001
    endloop
  endfacet
  facet normal -6.631433e-001 -0.000000e+000 -7.484925e-001
    outer loop
      vertex   -1.654251e+002 9.761282e+001 -6.807752e-001
      vertex   -1.654251e+002 9.394615e+001 -6.807752e-001
      vertex   -1.655607e+002 9.761282e+001 -5.606601e-001
    endloop
  endfacet
  facet normal -4.641628e-001 0.000000e+000 -8.843746e-001
    outer loop
      vertex   -1.651156e+002 9.394615e+001 -8.678498e-001
      vertex   -1.652760e+002 9.394615e+001 -7.836719e-001
      vertex   -1.652760e+002 9.761282e+001 -7.836719e-001
    endloop
  endfacet
  facet normal -5.680472e-001 -0.000000e+000 -8.229960e-001
    outer loop
      vertex   -1.652760e+002 9.761282e+001 -7.836719e-001
      vertex   -1.652760e+002 9.394615e+001 -7.836719e-001
      vertex   -1.654251e+002 9.761282e+001 -6.807752e-001
    endloop
  endfacet
  facet normal -3.541863e-001 0.000000e+000 -9.338725e-001
    outer loop
      vertex   -1.649463e+002 9.394615e+001 -9.320813e-001
      vertex   -1.651156e+002 9.394615e+001 -8.678498e-001
      vertex   -1.651156e+002 9.761282e+001 -8.678498e-001
    endloop
  endfacet
  facet normal -4.647288e-001 -0.000000e+000 -8.854530e-001
    outer loop
      vertex   -1.651156e+002 9.761282e+001 -8.678498e-001
      vertex   -1.651156e+002 9.394615e+001 -8.678498e-001
      vertex   -1.652760e+002 9.761282e+001 -7.836719e-001
    endloop
  endfacet
  facet normal -2.390231e-001 -1.734723e-018 -9.697595e-001
    outer loop
      vertex   -1.647704e+002 9.394615e+001 -9.754298e-001
      vertex   -1.649463e+002 9.394615e+001 -9.320813e-001
      vertex   -1.649463e+002 9.761282e+001 -9.320813e-001
    endloop
  endfacet
  facet normal -3.546182e-001 -0.000000e+000 -9.350112e-001
    outer loop
      vertex   -1.649463e+002 9.761282e+001 -9.320813e-001
      vertex   -1.649463e+002 9.394615e+001 -9.320813e-001
      vertex   -1.651156e+002 9.761282e+001 -8.678498e-001
    endloop
  endfacet
  facet normal -1.203833e-001 0.000000e+000 -9.915004e-001
    outer loop
      vertex   -1.645906e+002 9.394615e+001 -9.972633e-001
      vertex   -1.647704e+002 9.394615e+001 -9.754298e-001
      vertex   -1.647704e+002 9.761282e+001 -9.754298e-001
    endloop
  endfacet
  facet normal -2.393146e-001 -0.000000e+000 -9.709421e-001
    outer loop
      vertex   -1.647704e+002 9.761282e+001 -9.754298e-001
      vertex   -1.647704e+002 9.394615e+001 -9.754298e-001
      vertex   -1.649463e+002 9.761282e+001 -9.320813e-001
    endloop
  endfacet
  facet normal -1.205301e-001 -0.000000e+000 -9.927097e-001
    outer loop
      vertex   -1.645906e+002 9.761282e+001 -9.972633e-001
      vertex   -1.645906e+002 9.394615e+001 -9.972633e-001
      vertex   -1.647704e+002 9.761282e+001 -9.754298e-001
    endloop
  endfacet
  facet normal 0.000000e+000 -1.205329e-001 0.000000e+000
    outer loop
      vertex   -1.659891e+002 9.027949e+001 3.191950e-001
      vertex   -1.659564e+002 9.027949e+001 1.410265e-001
      vertex   -1.660000e+002 9.027949e+001 5.000001e-001
    endloop
  endfacet
  facet normal 0.000000e+000 -6.035455e-002 0.000000e+000
    outer loop
      vertex   -1.660000e+002 9.027949e+001 5.000001e-001
      vertex   -1.659564e+002 9.027949e+001 1.410265e-001
      vertex   -1.659025e+002 9.027949e+001 -3.190730e-002
    endloop
  endfacet
  facet normal 0.000000e+000 -6.038033e-002 0.000000e+000
    outer loop
      vertex   -1.660000e+002 9.027949e+001 5.000001e-001
      vertex   -1.659025e+002 9.027949e+001 -3.190730e-002
      vertex   -1.658282e+002 9.027949e+001 -1.970847e-001
    endloop
  endfacet
  facet normal 0.000000e+000 -2.974875e-001 0.000000e+000
    outer loop
      vertex   -1.658282e+002 9.027949e+001 -1.970847e-001
      vertex   -1.657345e+002 9.027949e+001 -3.520971e-001
      vertex   -1.660000e+002 9.027949e+001 5.000001e-001
    endloop
  endfacet
  facet normal 0.000000e+000 -6.037958e-002 0.000000e+000
    outer loop
      vertex   -1.660000e+002 9.027949e+001 5.000001e-001
      vertex   -1.657345e+002 9.027949e+001 -3.520971e-001
      vertex   -1.656228e+002 9.027949e+001 -4.946840e-001
    endloop
  endfacet
  facet normal 0.000000e+000 -6.037943e-002 0.000000e+000
    outer loop
      vertex   -1.660000e+002 9.027949e+001 5.000001e-001
      vertex   -1.656228e+002 9.027949e+001 -4.946840e-001
      vertex   -1.654947e+002 9.027949e+001 -6.227661e-001
    endloop
  endfacet
  facet normal 0.000000e+000 -4.647466e-001 0.000000e+000
    outer loop
      vertex   -1.654947e+002 9.027949e+001 -6.227661e-001
      vertex   -1.653521e+002 9.027949e+001 -7.344758e-001
      vertex   -1.660000e+002 9.027949e+001 5.000001e-001
    endloop
  endfacet
  facet normal 0.000000e+000 -6.037936e-002 0.000000e+000
    outer loop
      vertex   -1.660000e+002 9.027949e+001 5.000001e-001
      vertex   -1.653521e+002 9.027949e+001 -7.344758e-001
      vertex   -1.651971e+002 9.027949e+001 -8.281840e-001
    endloop
  endfacet
  facet normal 0.000000e+000 -6.037784e-002 0.000000e+000
    outer loop
      vertex   -1.660000e+002 9.027949e+001 5.000001e-001
      vertex   -1.651971e+002 9.027949e+001 -8.281840e-001
      vertex   -1.650319e+002 9.027949e+001 -9.025244e-001
    endloop
  endfacet
  facet normal 0.000000e+000 -5.680652e-001 0.000000e+000
    outer loop
      vertex   -1.660000e+002 9.027949e+001 5.000001e-001
      vertex   -1.650319e+002 9.027949e+001 -9.025244e-001
      vertex   -1.660000e+002 9.027949e+001 9.000000e+000
    endloop
  endfacet
  facet normal 0.000000e+000 -1.665048e-002 0.000000e+000
    outer loop
      vertex   -1.660000e+002 9.027949e+001 9.000000e+000
      vertex   -1.650319e+002 9.027949e+001 -9.025244e-001
      vertex   -1.648590e+002 9.027949e+001 -9.564127e-001
    endloop
  endfacet
  facet normal 0.000000e+000 -1.719970e-002 0.000000e+000
    outer loop
      vertex   -1.660000e+002 9.027949e+001 9.000000e+000
      vertex   -1.648590e+002 9.027949e+001 -9.564127e-001
      vertex   -1.646808e+002 9.027949e+001 -9.890633e-001
    endloop
  endfacet
  facet normal 0.000000e+000 -2.701871e-001 0.000000e+000
    outer loop
      vertex   -1.660000e+002 9.027949e+001 9.000000e+000
      vertex   -1.646808e+002 9.027949e+001 -9.890633e-001
      vertex   -1.630000e+002 9.027949e+001 2.000000e+000
    endloop
  endfacet
  facet normal 0.000000e+000 -4.858377e-002 0.000000e+000
    outer loop
      vertex   -1.630000e+002 9.027949e+001 2.000000e+000
      vertex   -1.646808e+002 9.027949e+001 -9.890633e-001
      vertex   -1.645000e+002 9.027949e+001 -1.000000e+000
    endloop
  endfacet
  facet normal 0.000000e+000 -4.472136e-001 -0.000000e+000
    outer loop
      vertex   -1.630000e+002 9.027949e+001 2.000000e+000
      vertex   -1.645000e+002 9.027949e+001 -1.000000e+000
      vertex   -1.630000e+002 9.027949e+001 -1.000000e+000
    endloop
  endfacet
  facet normal 0.000000e+000 -3.939193e-001 0.000000e+000
    outer loop
      vertex   -1.630000e+002 9.027949e+001 2.000000e+000
      vertex   -1.630000e+002 9.027949e+001 9.000000e+000
      vertex   -1.660000e+002 9.027949e+001 9.000000e+000
    endloop
  endfacet
  facet normal 0.000000e+000 0.000000e+000 1.000000e+000
    outer loop
      vertex   -1.630000e+002 1.012795e+002 9.000000e+000
      vertex   -1.660000e+002 1.012795e+002 9.000000e+000
      vertex   -1.630000e+002 9.027949e+001 9.000000e+000
    endloop
  endfacet
  facet normal 0.000000e+000 0.000000e+000 9.647638e-001
    outer loop
      vertex   -1.630000e+002 9.027949e+001 9.000000e+000
      vertex   -1.660000e+002 1.012795e+002 9.000000e+000
      vertex   -1.660000e+002 9.027949e+001 9.000000e+000
    endloop
  endfacet
  facet normal -1.000000e+000 0.000000e+000 0.000000e+000
    outer loop
      vertex   -1.660000e+002 9.027949e+001 5.000001e-001
      vertex   -1.660000e+002 9.027949e+001 9.000000e+000
      vertex   -1.660000e+002 1.012795e+002 5.000001e-001
    endloop
  endfacet
  facet normal -7.912850e-001 0.000000e+000 0.000000e+000
    outer loop
      vertex   -1.660000e+002 1.012795e+002 5.000001e-001
      vertex   -1.660000e+002 9.027949e+001 9.000000e+000
      vertex   -1.660000e+002 1.012795e+002 9.000000e+000
    endloop
  endfacet
  facet normal 0.000000e+000 1.000000e+000 -0.000000e+000
    outer loop
      vertex   -1.630000e+002 1.012795e+002 -1.000000e+000
      vertex   -1.645000e+002 1.012795e+002 -1.000000e+000
      vertex   -1.630000e+002 1.012795e+002 2.000000e+000
    endloop
  endfacet
  facet normal 0.000000e+000 4.858377e-002 0.000000e+000
    outer loop
      vertex   -1.630000e+002 1.012795e+002 2.000000e+000
      vertex   -1.645000e+002 1.012795e+002 -1.000000e+000
      vertex   -1.646808e+002 1.012795e+002 -9.890633e-001
    endloop
  endfacet
  facet normal 0.000000e+000 7.938671e-001 0.000000e+000
    outer loop
      vertex   -1.630000e+002 1.012795e+002 2.000000e+000
      vertex   -1.646808e+002 1.012795e+002 -9.890633e-001
      vertex   -1.660000e+002 1.012795e+002 9.000000e+000
    endloop
  endfacet
  facet normal 0.000000e+000 1.719970e-002 0.000000e+000
    outer loop
      vertex   -1.660000e+002 1.012795e+002 9.000000e+000
      vertex   -1.646808e+002 1.012795e+002 -9.890633e-001
      vertex   -1.648590e+002 1.012795e+002 -9.564127e-001
    endloop
  endfacet
  facet normal 0.000000e+000 1.665048e-002 0.000000e+000
    outer loop
      vertex   -1.660000e+002 1.012795e+002 9.000000e+000
      vertex   -1.648590e+002 1.012795e+002 -9.564127e-001
      vertex   -1.650319e+002 1.012795e+002 -9.025244e-001
    endloop
  endfacet
  facet normal 0.000000e+000 9.729848e-002 0.000000e+000
    outer loop
      vertex   -1.660000e+002 1.012795e+002 9.000000e+000
      vertex   -1.650319e+002 1.012795e+002 -9.025244e-001
      vertex   -1.660000e+002 1.012795e+002 5.000001e-001
    endloop
  endfacet
  facet normal 0.000000e+000 6.037784e-002 0.000000e+000
    outer loop
      vertex   -1.660000e+002 1.012795e+002 5.000001e-001
      vertex   -1.650319e+002 1.012795e+002 -9.025244e-001
      vertex   -1.651971e+002 1.012795e+002 -8.281840e-001
    endloop
  endfacet
  facet normal 0.000000e+000 6.037936e-002 0.000000e+000
    outer loop
      vertex   -1.660000e+002 1.012795e+002 5.000001e-001
      vertex   -1.651971e+002 1.012795e+002 -8.281840e-001
      vertex   -1.653521e+002 1.012795e+002 -7.344758e-001
    endloop
  endfacet
  facet normal 0.000000e+000 4.104326e-001 0.000000e+000
    outer loop
      vertex   -1.653521e+002 1.012795e+002 -7.344758e-001
      vertex   -1.654947e+002 1.012795e+002 -6.227661e-001
      vertex   -1.660000e+002 1.012795e+002 5.000001e-001
    endloop
  endfacet
  facet normal 0.000000e+000 6.037943e-002 0.000000e+000
    outer loop
      vertex   -1.660000e+002 1.012795e+002 5.000001e-001
      vertex   -1.654947e+002 1.012795e+002 -6.227661e-001
      vertex   -1.656228e+002 1.012795e+002 -4.946840e-001
    endloop
  endfacet
  facet normal 0.000000e+000 6.037958e-002 0.000000e+000
    outer loop
      vertex   -1.660000e+002 1.012795e+002 5.000001e-001
      vertex   -1.656228e+002 1.012795e+002 -4.946840e-001
      vertex   -1.657345e+002 1.012795e+002 -3.520971e-001
    endloop
  endfacet
  facet normal 0.000000e+000 2.393035e-001 0.000000e+000
    outer loop
      vertex   -1.657345e+002 1.012795e+002 -3.520971e-001
      vertex   -1.658282e+002 1.012795e+002 -1.970847e-001
      vertex   -1.660000e+002 1.012795e+002 5.000001e-001
    endloop
  endfacet
  facet normal 0.000000e+000 6.038033e-002 0.000000e+000
    outer loop
      vertex   -1.660000e+002 1.012795e+002 5.000001e-001
      vertex   -1.658282e+002 1.012795e+002 -1.970847e-001
      vertex   -1.659025e+002 1.012795e+002 -3.190730e-002
    endloop
  endfacet
  facet normal 0.000000e+000 6.035455e-002 0.000000e+000
    outer loop
      vertex   -1.660000e+002 1.012795e+002 5.000001e-001
      vertex   -1.659025e+002 1.012795e+002 -3.190730e-002
      vertex   -1.659564e+002 1.012795e+002 1.410265e-001
    endloop
  endfacet
  facet normal 0.000000e+000 6.037657e-002 0.000000e+000
    outer loop
      vertex   -1.659564e+002 1.012795e+002 1.410265e-001
      vertex   -1.659891e+002 1.012795e+002 3.191950e-001
      vertex   -1.660000e+002 1.012795e+002 5.000001e-001
    endloop
  endfacet
  facet normal -0.000000e+000 9.191450e-001 0.000000e+000
    outer loop
      vertex   -1.660000e+002 1.012795e+002 9.000000e+000
      vertex   -1.630000e+002 1.012795e+002 9.000000e+000
      vertex   -1.630000e+002 1.012795e+002 2.000000e+000
    endloop
  endfacet
  facet normal 1.000000e+000 0.000000e+000 -0.000000e+000
    outer loop
      vertex   -1.630000e+002 1.012795e+002 2.000000e+000
      vertex   -1.630000e+002 1.012795e+002 9.000000e+000
      vertex   -1.630000e+002 9.027949e+001 2.000000e+000
    endloop
  endfacet
  facet normal 8.436615e-001 0.000000e+000 0.000000e+000
    outer loop
      vertex   -1.630000e+002 9.027949e+001 2.000000e+000
      vertex   -1.630000e+002 1.012795e+002 9.000000e+000
      vertex   -1.630000e+002 9.027949e+001 9.000000e+000
    endloop
  endfacet
  facet normal -1.000000e+000 -0.000000e+000 -0.000000e+000
    outer loop
      vertex   -1.630000e+002 9.027949e+001 2.000000e+000
      vertex   -1.630000e+002 9.027949e+001 -1.000000e+000
      vertex   -1.630000e+002 8.227949e+001 2.000000e+000
    endloop
  endfacet
  facet normal -9.363292e-001 0.000000e+000 0.000000e+000
    outer loop
      vertex   -1.630000e+002 8.227949e+001 2.000000e+000
      vertex   -1.630000e+002 9.027949e+001 -1.000000e+000
      vertex   -1.630000e+002 8.227949e+001 -1.000000e+000
    endloop
  endfacet
  facet normal -1.000000e+000 0.000000e+000 0.000000e+000
    outer loop
      vertex   -1.630000e+002 1.012795e+002 2.000000e+000
      vertex   -1.630000e+002 1.092795e+002 2.000000e+000
      vertex   -1.630000e+002 1.012795e+002 -1.000000e+000
    endloop
  endfacet
  facet normal -3.511235e-001 0.000000e+000 0.000000e+000
    outer loop
      vertex   -1.630000e+002 1.012795e+002 -1.000000e+000
      vertex   -1.630000e+002 1.092795e+002 2.000000e+000
      vertex   -1.630000e+002 1.092795e+002 -1.000000e+000
    endloop
  endfacet
  facet normal -0.000000e+000 0.000000e+000 1.000000e+000
    outer loop
      vertex   -1.630000e+002 1.092795e+002 2.000000e+000
      vertex   -1.630000e+002 1.012795e+002 2.000000e+000
      vertex   -1.175000e+002 1.092795e+002 2.000000e+000
    endloop
  endfacet
  facet normal 0.000000e+000 0.000000e+000 9.848923e-001
    outer loop
      vertex   -1.175000e+002 1.092795e+002 2.000000e+000
      vertex   -1.630000e+002 1.012795e+002 2.000000e+000
      vertex   -1.175000e+002 8.227949e+001 2.000000e+000
    endloop
  endfacet
  facet normal 0.000000e+000 0.000000e+000 9.629538e-001
    outer loop
      vertex   -1.175000e+002 1.092795e+002 2.000000e+000
      vertex   -1.175000e+002 8.227949e+001 2.000000e+000
      vertex   -8.177818e+001 9.927592e+001 2.000000e+000
    endloop
  endfacet
  facet normal 0.000000e+000 0.000000e+000 9.029975e-001
    outer loop
      vertex   -8.177818e+001 9.927592e+001 2.000000e+000
      vertex   -1.175000e+002 8.227949e+001 2.000000e+000
      vertex   -8.177818e+001 9.228306e+001 2.000000e+000
    endloop
  endfacet
  facet normal 0.000000e+000 0.000000e+000 8.771229e-001
    outer loop
      vertex   -8.177818e+001 9.228306e+001 2.000000e+000
      vertex   -1.175000e+002 8.227949e+001 2.000000e+000
      vertex   -7.200000e+001 8.227949e+001 2.000000e+000
    endloop
  endfacet
  facet normal -0.000000e+000 0.000000e+000 7.151172e-001
    outer loop
      vertex   -8.177818e+001 9.228306e+001 2.000000e+000
      vertex   -7.200000e+001 8.227949e+001 2.000000e+000
      vertex   -7.200000e+001 9.228306e+001 2.000000e+000
    endloop
  endfacet
  facet normal 0.000000e+000 0.000000e+000 9.227766e-001
    outer loop
      vertex   -1.630000e+002 1.012795e+002 2.000000e+000
      vertex   -1.630000e+002 9.027949e+001 2.000000e+000
      vertex   -1.175000e+002 8.227949e+001 2.000000e+000
    endloop
  endfacet
  facet normal 0.000000e+000 0.000000e+000 1.731679e-001
    outer loop
      vertex   -1.175000e+002 8.227949e+001 2.000000e+000
      vertex   -1.630000e+002 9.027949e+001 2.000000e+000
      vertex   -1.630000e+002 8.227949e+001 2.000000e+000
    endloop
  endfacet
  facet normal 0.000000e+000 -0.000000e+000 1.000000e+000
    outer loop
      vertex   -7.200000e+001 9.927592e+001 2.000000e+000
      vertex   -7.200000e+001 1.092795e+002 2.000000e+000
      vertex   -8.177818e+001 9.927592e+001 2.000000e+000
    endloop
  endfacet
  facet normal 0.000000e+000 -0.000000e+000 8.771229e-001
    outer loop
      vertex   -8.177818e+001 9.927592e+001 2.000000e+000
      vertex   -7.200000e+001 1.092795e+002 2.000000e+000
      vertex   -1.175000e+002 1.092795e+002 2.000000e+000
    endloop
  endfacet
  facet normal 0.000000e+000 0.000000e+000 -1.000000e+000
    outer loop
      vertex   -1.630000e+002 8.227949e+001 -1.000000e+000
      vertex   -1.630000e+002 9.027949e+001 -1.000000e+000
      vertex   -1.175000e+002 8.227949e+001 -1.000000e+000
    endloop
  endfacet
  facet normal 0.000000e+000 0.000000e+000 -9.848923e-001
    outer loop
      vertex   -1.175000e+002 8.227949e+001 -1.000000e+000
      vertex   -1.630000e+002 9.027949e+001 -1.000000e+000
      vertex   -1.175000e+002 1.092795e+002 -1.000000e+000
    endloop
  endfacet
  facet normal 0.000000e+000 0.000000e+000 -9.682117e-001
    outer loop
      vertex   -1.175000e+002 8.227949e+001 -1.000000e+000
      vertex   -1.175000e+002 1.092795e+002 -1.000000e+000
      vertex   -7.877818e+001 9.228306e+001 -1.000000e+000
    endloop
  endfacet
  facet normal 0.000000e+000 0.000000e+000 -9.156736e-001
    outer loop
      vertex   -7.877818e+001 9.228306e+001 -1.000000e+000
      vertex   -1.175000e+002 1.092795e+002 -1.000000e+000
      vertex   -7.877818e+001 9.927592e+001 -1.000000e+000
    endloop
  endfacet
  facet normal 0.000000e+000 0.000000e+000 -9.418507e-001
    outer loop
      vertex   -7.877818e+001 9.927592e+001 -1.000000e+000
      vertex   -1.175000e+002 1.092795e+002 -1.000000e+000
      vertex   -7.200000e+001 1.092795e+002 -1.000000e+000
    endloop
  endfacet
  facet normal 0.000000e+000 0.000000e+000 -8.278586e-001
    outer loop
      vertex   -7.877818e+001 9.927592e+001 -1.000000e+000
      vertex   -7.200000e+001 1.092795e+002 -1.000000e+000
      vertex   -7.200000e+001 9.927592e+001 -1.000000e+000
    endloop
  endfacet
  facet normal 0.000000e+000 0.000000e+000 -2.197185e-001
    outer loop
      vertex   -1.175000e+002 1.092795e+002 -1.000000e+000
      vertex   -1.630000e+002 9.027949e+001 -1.000000e+000
      vertex   -1.630000e+002 1.012795e+002 -1.000000e+000
    endloop
  endfacet
  facet normal 0.000000e+000 -0.000000e+000 -1.351132e-001
    outer loop
      vertex   -1.630000e+002 1.012795e+002 -1.000000e+000
      vertex   -1.630000e+002 9.027949e+001 -1.000000e+000
      vertex   -1.645000e+002 9.027949e+001 -1.000000e+000
    endloop
  endfacet
  facet normal -0.000000e+000 0.000000e+000 -9.908302e-001
    outer loop
      vertex   -1.630000e+002 1.012795e+002 -1.000000e+000
      vertex   -1.645000e+002 9.027949e+001 -1.000000e+000
      vertex   -1.645000e+002 1.012795e+002 -1.000000e+000
    endloop
  endfacet
  facet normal 0.000000e+000 0.000000e+000 -9.848923e-001
    outer loop
      vertex   -1.630000e+002 1.012795e+002 -1.000000e+000
      vertex   -1.630000e+002 1.092795e+002 -1.000000e+000
      vertex   -1.175000e+002 1.092795e+002 -1.000000e+000
    endloop
  endfacet
  facet normal -0.000000e+000 -0.000000e+000 -1.000000e+000
    outer loop
      vertex   -7.200000e+001 9.228306e+001 -1.000000e+000
      vertex   -7.200000e+001 8.227949e+001 -1.000000e+000
      vertex   -7.877818e+001 9.228306e+001 -1.000000e+000
    endloop
  endfacet
  facet normal 0.000000e+000 -0.000000e+000 -9.418507e-001
    outer loop
      vertex   -7.877818e+001 9.228306e+001 -1.000000e+000
      vertex   -7.200000e+001 8.227949e+001 -1.000000e+000
      vertex   -1.175000e+002 8.227949e+001 -1.000000e+000
    endloop
  endfacet
  facet normal -0.000000e+000 7.071068e-001 0.000000e+000
    outer loop
      vertex   -8.177818e+001 9.228306e+001 2.000000e+000
      vertex   -7.200000e+001 9.228306e+001 2.000000e+000
      vertex   -7.877818e+001 9.228306e+001 -1.000000e+000
    endloop
  endfacet
  facet normal 0.000000e+000 4.047273e-001 0.000000e+000
    outer loop
      vertex   -7.877818e+001 9.228306e+001 -1.000000e+000
      vertex   -7.200000e+001 9.228306e+001 2.000000e+000
      vertex   -7.200000e+001 9.228306e+001 -1.000000e+000
    endloop
  endfacet
  facet normal 7.071068e-001 -0.000000e+000 7.071068e-001
    outer loop
      vertex   -8.177818e+001 9.228306e+001 2.000000e+000
      vertex   -7.877818e+001 9.228306e+001 -1.000000e+000
      vertex   -8.177818e+001 9.927592e+001 2.000000e+000
    endloop
  endfacet
  facet normal 6.045420e-001 0.000000e+000 6.045420e-001
    outer loop
      vertex   -8.177818e+001 9.927592e+001 2.000000e+000
      vertex   -7.877818e+001 9.228306e+001 -1.000000e+000
      vertex   -7.877818e+001 9.927592e+001 -1.000000e+000
    endloop
  endfacet
  facet normal 0.000000e+000 -7.071068e-001 0.000000e+000
    outer loop
      vertex   -8.177818e+001 9.927592e+001 2.000000e+000
      vertex   -7.877818e+001 9.927592e+001 -1.000000e+000
      vertex   -7.200000e+001 9.927592e+001 2.000000e+000
    endloop
  endfacet
  facet normal 0.000000e+000 -9.144375e-001 -0.000000e+000
    outer loop
      vertex   -7.200000e+001 9.927592e+001 2.000000e+000
      vertex   -7.877818e+001 9.927592e+001 -1.000000e+000
      vertex   -7.200000e+001 9.927592e+001 -1.000000e+000
    endloop
  endfacet
  facet normal 1.000000e+000 0.000000e+000 -0.000000e+000
    outer loop
      vertex   -7.200000e+001 9.228306e+001 -1.000000e+000
      vertex   -7.200000e+001 9.228306e+001 2.000000e+000
      vertex   -7.200000e+001 8.227949e+001 -1.000000e+000
    endloop
  endfacet
  facet normal 9.578545e-001 0.000000e+000 0.000000e+000
    outer loop
      vertex   -7.200000e+001 8.227949e+001 -1.000000e+000
      vertex   -7.200000e+001 9.228306e+001 2.000000e+000
      vertex   -7.200000e+001 8.227949e+001 2.000000e+000
    endloop
  endfacet
  facet normal 0.000000e+000 -1.000000e+000 0.000000e+000
    outer loop
      vertex   -1.630000e+002 8.227949e+001 2.000000e+000
      vertex   -1.630000e+002 8.227949e+001 -1.000000e+000
      vertex   -1.175000e+002 8.227949e+001 2.000000e+000
    endloop
  endfacet
  facet normal 0.000000e+000 -9.978334e-001 -0.000000e+000
    outer loop
      vertex   -1.175000e+002 8.227949e+001 2.000000e+000
      vertex   -1.630000e+002 8.227949e+001 -1.000000e+000
      vertex   -1.175000e+002 8.227949e+001 -1.000000e+000
    endloop
  endfacet
  facet normal 0.000000e+000 -1.000000e+000 0.000000e+000
    outer loop
      vertex   -1.175000e+002 8.227949e+001 2.000000e+000
      vertex   -1.175000e+002 8.227949e+001 -1.000000e+000
      vertex   -7.200000e+001 8.227949e+001 2.000000e+000
    endloop
  endfacet
  facet normal 0.000000e+000 -9.978334e-001 -0.000000e+000
    outer loop
      vertex   -7.200000e+001 8.227949e+001 2.000000e+000
      vertex   -1.175000e+002 8.227949e+001 -1.000000e+000
      vertex   -7.200000e+001 8.227949e+001 -1.000000e+000
    endloop
  endfacet
  facet normal 0.000000e+000 1.000000e+000 0.000000e+000
    outer loop
      vertex   -7.200000e+001 1.092795e+002 2.000000e+000
      vertex   -7.200000e+001 1.092795e+002 -1.000000e+000
      vertex   -1.175000e+002 1.092795e+002 2.000000e+000
    endloop
  endfacet
  facet normal 0.000000e+000 9.978334e-001 0.000000e+000
    outer loop
      vertex   -1.175000e+002 1.092795e+002 2.000000e+000
      vertex   -7.200000e+001 1.092795e+002 -1.000000e+000
      vertex   -1.175000e+002 1.092795e+002 -1.000000e+000
    endloop
  endfacet
  facet normal 0.000000e+000 1.000000e+000 0.000000e+000
    outer loop
      vertex   -1.175000e+002 1.092795e+002 2.000000e+000
      vertex   -1.175000e+002 1.092795e+002 -1.000000e+000
      vertex   -1.630000e+002 1.092795e+002 2.000000e+000
    endloop
  endfacet
  facet normal 0.000000e+000 9.978334e-001 0.000000e+000
    outer loop
      vertex   -1.630000e+002 1.092795e+002 2.000000e+000
      vertex   -1.175000e+002 1.092795e+002 -1.000000e+000
      vertex   -1.630000e+002 1.092795e+002 -1.000000e+000
    endloop
  endfacet
  facet normal 1.000000e+000 -0.000000e+000 0.000000e+000
    outer loop
      vertex   -7.200000e+001 9.927592e+001 2.000000e+000
      vertex   -7.200000e+001 9.927592e+001 -1.000000e+000
      vertex   -7.200000e+001 1.092795e+002 2.000000e+000
    endloop
  endfacet
  facet normal 9.578545e-001 0.000000e+000 0.000000e+000
    outer loop
      vertex   -7.200000e+001 1.092795e+002 2.000000e+000
      vertex   -7.200000e+001 9.927592e+001 -1.000000e+000
      vertex   -7.200000e+001 1.092795e+002 -1.000000e+000
    endloop
  endfacet
endsolid
